<?xml version="1.0" encoding="utf-8"?>
<!-- Generator: Adobe Illustrator 24.1.1, SVG Export Plug-In . SVG Version: 6.00 Build 0)  -->
<svg version="1.1" id="Layer_1" xmlns="http://www.w3.org/2000/svg" xmlns:xlink="http://www.w3.org/1999/xlink" x="0px" y="0px"
	 viewBox="0 0 419.82 121.41" style="enable-background:new 0 0 419.82 121.41;" xml:space="preserve">
<style type="text/css">
	.st0{fill:#FFFFFF;}
	.st1{fill:#010101;}
	.st2{fill:#070707;}
</style>
<g>
	<g>
		<path class="st0" d="M383.14,46.28c-10.8-2.19-21.49-4.82-32.02-8.03c-10.36-3.16-20.28-7.81-30.66-10.81
			c-12.92-3.73-26.46-0.9-39.53,0.47c-10.13,1.06-20.27,2.12-30.4,3.19C178.5,27.69,127,28.45,54.98,25.05
			c-15.4-0.73-29.41,7.53-34.82,22.59c-3.34,9.3-7.3,28.56,0.57,33.99c4.31,9.52,9.34,6.45,21.18,7.72c5.45,0.58,10.86,0,16.27-0.82
			c1.7-0.26,3.34-0.71,4.91-1.32c4.42,1.89,8.91,3.57,13.63,4.82c13.87,3.69,28.37,5.29,42.66,6.49c28.2,2.37,56.51,3.32,84.81,3.59
			c56.18,0.53,112.33-1.59,168.51-0.84c14.74,0.2,27.42-9.08,30.06-23.08C405.13,65.69,397.51,49.19,383.14,46.28z"/>
		<path class="st1" d="M223.31,103.21c-6.39,0-12.77-0.03-19.13-0.09c-32.41-0.31-59.38-1.45-84.88-3.6
			c-13.91-1.17-28.73-2.77-42.83-6.52c-4.19-1.12-8.46-2.62-13.4-4.71c-1.58,0.58-3.17,0.99-4.74,1.23
			c-5.23,0.79-10.85,1.43-16.53,0.82c-2.92-0.31-5.42-0.36-7.62-0.4c-6.48-0.12-10.78-0.19-14.25-7.66
			c-8.6-6.37-3.45-27.37-0.71-34.99c5.35-14.9,19.4-24.02,35.81-23.25c36,1.7,67.39,2.37,97.75,3.02
			c30.35,0.65,61.73,1.32,97.73,3.02l30.33-3.18c2.32-0.24,4.65-0.53,7-0.82c10.86-1.35,22.09-2.74,32.91,0.39
			c5.48,1.58,10.91,3.65,16.16,5.65c4.73,1.8,9.62,3.67,14.51,5.16c10,3.05,20.74,5.74,31.93,8.01
			c14.69,2.98,22.9,19.92,20.41,33.09c-2.66,14.13-15.2,23.9-30.57,23.9c-0.16,0-0.32,0-0.48,0c-29.15-0.39-58.79,0-87.46,0.38
			C264.92,102.94,244.08,103.21,223.31,103.21z M63.11,86.14l0.37,0.16c5,2.14,9.29,3.66,13.49,4.78
			c13.96,3.71,28.67,5.3,42.49,6.46c25.45,2.14,52.37,3.28,84.73,3.59c27,0.26,54.45-0.11,81-0.46c28.68-0.38,58.33-0.77,87.51-0.38
			c0.15,0,0.3,0,0.45,0c14.4,0,26.13-9.1,28.61-22.27c2.31-12.25-5.26-28.01-18.84-30.76c-11.25-2.28-22.06-4.99-32.11-8.06
			c-4.96-1.51-9.88-3.39-14.64-5.2c-5.21-1.99-10.6-4.04-16-5.6c-10.43-3.01-21.45-1.64-32.11-0.32c-2.31,0.29-4.7,0.58-7.03,0.83
			l-30.48,3.19l-0.08,0c-36-1.7-67.39-2.37-97.75-3.02c-30.37-0.65-61.78-1.32-97.8-3.03c-15.51-0.73-28.79,7.87-33.84,21.93
			c-3.64,10.13-6.81,28,0.19,32.83l0.23,0.16l0.11,0.25c2.97,6.56,5.98,6.61,12.58,6.73c2.25,0.04,4.79,0.09,7.8,0.41
			c5.45,0.58,10.92-0.05,16.02-0.81c1.55-0.23,3.13-0.66,4.7-1.26L63.11,86.14z"/>
	</g>
	<g>
		<g>
			<path class="st2" d="M58.47,56.22c-0.07,0.47-0.15,0.88-0.23,1.24c-0.08,0.36-0.22,0.7-0.42,1.02c-0.2,0.32-0.45,0.64-0.77,0.98
				c-0.32,0.34-0.72,0.72-1.21,1.14c-1.28,1.09-2.66,1.69-4.15,1.8c-0.34,0.11-0.79,0.24-1.35,0.39s-1.21,0.3-1.98,0.47l0,2.54
				c0.03,0.37,0.06,0.73,0.07,1.1c0.01,0.37,0,0.77-0.02,1.21c-0.01,0.31-0.03,0.65-0.05,1.01s-0.08,0.7-0.18,1.01
				c-0.11,0.31-0.29,0.56-0.54,0.76s-0.62,0.28-1.09,0.26c-0.5-0.02-0.85-0.13-1.08-0.32c-0.23-0.19-0.37-0.45-0.43-0.78
				c-0.06-0.33-0.09-0.71-0.08-1.16c0.01-0.44-0.02-0.91-0.07-1.41l0,0.04c-0.01-0.34-0.02-0.74-0.02-1.21
				c-0.01-0.42-0.01-0.93-0.01-1.54s0-1.34-0.01-2.17l0.01-0.23c0.01-0.16,0.01-0.36,0.01-0.63c0-0.26-0.01-0.53-0.02-0.82
				c-0.01-0.29-0.02-0.54-0.02-0.76c0-0.22,0-0.37,0-0.45c0.01-0.16,0.03-0.44,0.06-0.84c0.03-0.4,0.07-0.84,0.1-1.31
				c0.04-0.47,0.07-0.92,0.1-1.34c0.03-0.43,0.06-0.76,0.07-0.99c0.02-0.42,0.02-0.79,0-1.13c-0.02-0.34-0.05-0.65-0.09-0.94
				c0-0.05,0.02-0.22,0.04-0.51c0.03-0.29,0.06-0.6,0.1-0.95c0.04-0.35,0.1-0.7,0.17-1.05c0.07-0.35,0.15-0.64,0.24-0.87
				c0.72-0.3,1.57-0.43,2.56-0.39l0.31,0.01c1.13-0.29,2.18-0.41,3.15-0.36c0.36,0.02,1.38,0.22,3.06,0.61l1.67,1.02
				c0.45,0.31,0.82,0.62,1.11,0.93c0.29,0.31,0.51,0.68,0.67,1.11c0.16,0.43,0.27,0.92,0.32,1.48
				C58.5,54.73,58.51,55.42,58.47,56.22z M54.78,56.6c0.1-0.49,0.16-0.93,0.18-1.32c0.03-0.7-0.22-1.36-0.77-1.97
				c-0.54-0.61-1.47-0.95-2.77-1.01c-0.6-0.03-1.52,0.14-2.76,0.5c0.03,0.5,0.04,1.09,0.03,1.78c-0.01,0.69-0.03,1.49-0.07,2.4
				c-0.03,0.05-0.05,0.31-0.08,0.78c-0.01,0.23-0.02,0.51-0.04,0.84c-0.02,0.33-0.02,0.7-0.01,1.11c0.24-0.01,0.5-0.05,0.81-0.12
				c0.3-0.06,0.59-0.14,0.85-0.21c0.26-0.08,0.58-0.19,0.95-0.33C53,58.69,54.22,57.88,54.78,56.6z"/>
		</g>
		<g>
			<path class="st2" d="M78.81,62.81c-0.4,1.34-1.44,2.85-3.11,4.55c-0.21,0.07-0.49,0.21-0.82,0.43c-0.34,0.22-0.76,0.44-1.28,0.66
				c-0.52,0.22-1.15,0.41-1.88,0.56c-0.74,0.15-1.6,0.2-2.59,0.15c-1.98-0.09-3.6-0.7-4.88-1.81c-1.28-1.12-2.23-2.82-2.85-5.12
				c-0.02-0.18-0.02-0.37-0.01-0.55c0.01-0.18,0.02-0.38,0.03-0.58c0.08-1.61,0.31-3.03,0.71-4.25c0.39-1.22,0.9-2.27,1.52-3.15
				c0.61-0.88,1.31-1.62,2.08-2.21c0.77-0.59,1.57-1.06,2.39-1.41c1.34-0.3,2.65-0.42,3.93-0.36c0.91,0.04,1.8,0.32,2.66,0.83
				c0.86,0.51,1.62,1.21,2.27,2.1c0.65,0.89,1.16,1.96,1.53,3.22c0.37,1.26,0.55,2.67,0.53,4.23L78.81,62.81z M75.23,62.53
				c0.23-1.06,0.36-1.89,0.39-2.48c0.05-0.99-0.05-1.91-0.3-2.75c-0.25-0.85-0.55-1.58-0.91-2.21c-0.36-0.63-0.75-1.13-1.16-1.5
				c-0.41-0.37-0.76-0.56-1.05-0.58c-1.38-0.06-2.52,0.19-3.42,0.76c-0.9,0.57-1.62,1.27-2.15,2.11c-0.54,0.84-0.92,1.72-1.14,2.65
				c-0.23,0.93-0.35,1.72-0.38,2.37c-0.03,0.6,0.04,1.18,0.21,1.75c0.17,0.57,0.43,1.08,0.79,1.52c0.36,0.45,0.79,0.81,1.3,1.1
				c0.51,0.28,1.1,0.44,1.78,0.47c1.59,0.07,2.85-0.16,3.79-0.7C73.9,64.48,74.65,63.65,75.23,62.53z"/>
		</g>
		<g>
			<path class="st2" d="M109.25,52.63c-0.04,0.34-0.11,0.78-0.22,1.32c-0.1,0.54-0.23,1.1-0.39,1.66c-0.16,0.57-0.32,1.09-0.49,1.58
				c-0.17,0.49-0.32,0.86-0.46,1.11c-0.79,2.91-2.62,6.16-5.5,9.75c-0.29,0.61-0.7,1.09-1.22,1.43c-0.53,0.34-1.04,0.66-1.55,0.94
				c-0.15-0.11-0.36-0.4-0.63-0.85c-0.26-0.46-0.55-0.98-0.84-1.58c-0.3-0.6-0.59-1.22-0.87-1.86c-0.28-0.64-0.5-1.21-0.66-1.71
				c-0.65-0.68-1.3-2-1.96-3.96c-0.21,0.67-0.49,1.44-0.81,2.33c-0.33,0.88-0.73,1.9-1.2,3.05c-0.48,0.81-0.87,1.47-1.17,1.98
				s-0.57,0.92-0.82,1.23c-0.25,0.31-0.5,0.56-0.74,0.73c-0.24,0.17-0.54,0.33-0.88,0.47c-0.38-0.2-0.77-0.58-1.16-1.13
				c-0.39-0.55-0.75-1.16-1.09-1.81s-0.61-1.29-0.83-1.92c-0.22-0.62-0.33-1.12-0.34-1.48l-2.17-6.2c-0.01-0.31-0.05-0.65-0.13-1.02
				c-0.07-0.37-0.15-0.74-0.24-1.13c-0.09-0.38-0.16-0.76-0.22-1.15c-0.06-0.38-0.08-0.74-0.07-1.08c0.03-0.68,0.23-1.18,0.6-1.52
				c0.37-0.33,0.79-0.49,1.26-0.47c0.75,0.04,1.48,0.47,2.17,1.31c-0.03,0.1-0.05,0.27-0.06,0.51c0.01,0.29,0.02,0.62,0.03,1
				c0.01,0.38,0.04,0.83,0.09,1.35l0.28,2.36c0.21,0.51,0.4,1,0.56,1.47c0.16,0.48,0.32,0.98,0.48,1.51
				c0.16,0.53,0.33,1.11,0.5,1.74c0.18,0.63,0.39,1.36,0.64,2.18c0.09-0.31,0.17-0.55,0.23-0.71c0.06-0.17,0.11-0.32,0.16-0.46
				c0.05-0.14,0.11-0.31,0.18-0.5c0.07-0.19,0.19-0.48,0.35-0.86c0.16-0.38,0.37-0.88,0.64-1.5c0.26-0.61,0.61-1.42,1.05-2.42
				c0.21-1.14,0.47-2.01,0.79-2.62l0.01-0.23c0.05-0.99,0.72-1.45,2.02-1.39c0.44,0.02,0.76,0.12,0.94,0.3
				c0.19,0.18,0.33,0.41,0.44,0.7c0.1,0.29,0.2,0.64,0.28,1.03c0.08,0.4,0.26,0.83,0.52,1.32l0.49,1.2
				c0.35,0.88,0.66,1.56,0.94,2.06c0.28,0.5,0.51,0.88,0.71,1.15c0.14,0.37,0.32,0.81,0.54,1.32s0.49,1.09,0.8,1.76
				c0.22-0.3,0.49-0.67,0.79-1.1c0.31-0.43,0.64-0.99,1-1.67c0.36-0.69,0.74-1.53,1.14-2.53c0.4-1,0.83-2.22,1.29-3.66
				c0.34-1.08,0.66-1.98,0.97-2.71c0.31-0.73,0.6-1.31,0.88-1.74c0.24-0.09,0.54-0.13,0.91-0.11
				C108.16,51.45,108.84,51.86,109.25,52.63z"/>
		</g>
		<g>
			<path class="st2" d="M125.18,69.93c0.84,0.48,1.24,1.14,1.2,1.97c-0.03,0.55-0.18,0.93-0.46,1.15c-0.28,0.22-0.68,0.37-1.19,0.43
				c-0.51,0.07-1.15,0.09-1.9,0.07c-0.76-0.02-1.6-0.03-2.54-0.02c-0.31-0.12-1.45-0.28-3.42-0.47c-0.29,0.01-0.56,0.02-0.82,0.02
				s-0.51,0-0.74-0.02c-1.4-0.07-2.36-0.32-2.86-0.76c-0.08-1.05-0.13-2.01-0.16-2.9c-0.02-0.89-0.02-1.7,0.02-2.42
				c0.05-1.14,0.15-2.14,0.28-2.98c0.13-0.84,0.21-1.6,0.24-2.28c0.04-0.83,0.03-1.48-0.03-1.96l0.43-4.09
				c0.15-0.98,0.31-1.82,0.49-2.52c0.18-0.7,0.38-1.22,0.6-1.57c0.17-0.2,0.96-0.42,2.38-0.67l2.52-0.43
				c0.16-0.02,0.48-0.04,0.98-0.07c0.5-0.03,1.01-0.06,1.55-0.08c0.54-0.03,1.01-0.04,1.43-0.05c0.42-0.01,0.61-0.01,0.59-0.01
				l0.16,0.01c0.29,0.01,0.57,0.22,0.85,0.63c0.28,0.4,0.41,0.87,0.38,1.39c-0.01,0.26-0.03,0.49-0.05,0.7
				c-0.02,0.21-0.12,0.38-0.28,0.51c-0.16,0.14-0.43,0.23-0.8,0.29c-0.37,0.06-0.9,0.09-1.61,0.08c-1.15,0-1.93,0.08-2.36,0.24
				l-0.2-0.01c-0.68-0.03-1.53,0.08-2.56,0.35c-0.11,0.13-0.2,0.35-0.27,0.67s-0.12,0.66-0.16,1.01c-0.04,0.35-0.08,0.65-0.1,0.9
				c-0.02,0.25-0.04,0.33-0.03,0.25c-0.03,0.13-0.06,0.26-0.08,0.39c-0.02,0.13-0.03,0.3-0.04,0.51c-0.01,0.18-0.01,0.38-0.01,0.61
				c0,0.22,0.01,0.46,0.02,0.72c0.81-0.04,1.47-0.09,1.98-0.16c0.51-0.07,0.91-0.09,1.2-0.08c0.55,0.03,1.08,0.04,1.6,0.04
				c0.52,0,0.98,0.05,1.38,0.16c0.4,0.11,0.71,0.31,0.93,0.59c0.22,0.28,0.32,0.73,0.29,1.32c-0.03,0.68-0.27,1.11-0.71,1.3
				c-0.44,0.19-1.19,0.27-2.26,0.25c-1.25-0.01-2.01,0.01-2.27,0.05c-0.16-0.01-0.32-0.02-0.49-0.04c-0.17-0.02-0.36-0.04-0.57-0.05
				c-0.13-0.01-0.28-0.02-0.45-0.04c-0.17-0.02-0.33-0.03-0.49-0.02s-0.29,0.05-0.42,0.14c-0.12,0.09-0.19,0.25-0.2,0.48
				c-0.01,0.16-0.01,0.36-0.01,0.61c0,0.25,0,0.48-0.01,0.68c-0.01,0.31-0.04,0.62-0.06,0.94s-0.06,0.64-0.09,0.99
				s-0.06,0.75-0.1,1.19c-0.03,0.44-0.06,0.96-0.09,1.56c0.16,0.03,0.46,0.07,0.91,0.12c0.45,0.05,0.93,0.1,1.44,0.15
				c0.51,0.05,0.99,0.11,1.46,0.17c0.47,0.06,0.78,0.11,0.93,0.14c0.03,0,0.21,0,0.55-0.01c0.34-0.01,0.84-0.03,1.49-0.05
				c0.89-0.04,1.59-0.04,2.11-0.02L125.18,69.93z"/>
		</g>
		<g>
			<path class="st2" d="M145.06,72.19c-0.02,0.47-0.25,0.9-0.69,1.28c-0.43,0.38-0.86,0.57-1.28,0.55c-0.21-0.01-0.38-0.08-0.5-0.22
				c-0.03,0-0.14-0.14-0.33-0.41c-0.2-0.27-0.43-0.61-0.69-1.01c-0.27-0.4-0.56-0.83-0.88-1.29c-0.32-0.46-0.61-0.89-0.88-1.29
				c-0.27-0.4-0.48-0.73-0.64-0.99c-0.16-0.25-0.22-0.37-0.2-0.34c-0.04-0.16-0.16-0.41-0.36-0.76c-0.19-0.35-0.4-0.72-0.63-1.11
				c-0.23-0.39-0.44-0.75-0.63-1.09c-0.19-0.33-0.3-0.54-0.32-0.62c-0.05,0-0.2,0.01-0.43,0.04c-0.24,0.03-0.5,0.06-0.79,0.08
				c-0.29,0.03-0.58,0.05-0.88,0.08s-0.53,0.03-0.69,0.03l-0.2-0.01c-0.12,0.8-0.21,1.46-0.29,1.98c-0.08,0.52-0.12,0.91-0.13,1.17
				l-0.06,1.21c-0.07,1.4-0.25,2.92-0.57,4.55c-0.33,0.45-0.8,0.67-1.4,0.64c-0.52-0.02-0.96-0.18-1.33-0.47
				c-0.36-0.29-0.53-0.77-0.5-1.45c0.01-0.21,0.03-0.46,0.06-0.76c0.03-0.3,0.05-0.6,0.08-0.92c0.03-0.31,0.05-0.59,0.08-0.84
				c0.02-0.25,0.04-0.41,0.04-0.49l0.01-0.19l0.55-5.88c0.04-0.34,0.07-0.75,0.08-1.25c0.01-0.49,0.06-1.07,0.14-1.71l0.42-2.33
				c0.19-0.8,0.31-1.48,0.33-2.06c0.01-0.18,0.01-0.36,0-0.53c0-0.17-0.02-0.35-0.03-0.53l0.18-1.36c0.05-0.62,0.2-1.13,0.42-1.51
				c0.23-0.38,0.73-0.55,1.51-0.52c0.55,0.03,1.09,0.14,1.63,0.35c0.52-0.03,0.99-0.03,1.39-0.01c0.4,0.02,0.75,0.04,1.03,0.05
				c0.26,0.01,0.49,0.03,0.7,0.05c0.21,0.02,0.41,0.06,0.62,0.11c0.21,0.05,0.44,0.11,0.7,0.19c0.26,0.08,0.56,0.18,0.92,0.3
				l1.66,1.25c0.93,0.8,1.53,1.58,1.83,2.35c0.29,0.77,0.41,1.57,0.38,2.4c-0.03,0.57-0.07,1.06-0.13,1.46
				c-0.06,0.4-0.21,0.79-0.47,1.17c-0.25,0.38-0.64,0.77-1.15,1.16c-0.51,0.39-1.24,0.88-2.18,1.46c0.56,0.78,1.19,1.93,1.87,3.45
				C142.91,68,143.77,69.52,145.06,72.19z M140.84,59.52c0.03-0.1,0.05-0.25,0.06-0.43c0.01-0.26,0-0.53-0.04-0.8
				c-0.04-0.28-0.14-0.55-0.31-0.84c-0.17-0.28-0.42-0.57-0.76-0.86c-0.34-0.29-0.81-0.58-1.43-0.87c-0.54-0.23-0.99-0.36-1.35-0.38
				c-0.11,0.02-0.25,0.04-0.43,0.06c-0.16,0.04-0.36,0.08-0.59,0.11c-0.24,0.03-0.5,0.06-0.79,0.1c0.02,0.16,0.03,0.31,0.02,0.45
				c-0.01,0.14-0.04,0.41-0.1,0.8c-0.06,0.39-0.14,0.95-0.25,1.67c-0.11,0.73-0.25,1.73-0.42,3.03c0.1,0.03,0.21,0.05,0.31,0.05
				c0.1,0,0.21,0.01,0.31,0.01c0.49,0.02,1.05-0.02,1.67-0.14c0.62-0.11,1.21-0.27,1.76-0.46s1.05-0.43,1.48-0.69
				C140.41,60.07,140.7,59.8,140.84,59.52z"/>
		</g>
		<g>
			<path class="st2" d="M162.49,71.68c0.84,0.48,1.24,1.14,1.2,1.97c-0.03,0.55-0.18,0.93-0.46,1.15s-0.68,0.37-1.19,0.43
				c-0.51,0.07-1.14,0.09-1.9,0.07c-0.76-0.02-1.6-0.03-2.54-0.02c-0.31-0.12-1.45-0.28-3.42-0.47c-0.29,0.01-0.56,0.02-0.82,0.02
				c-0.26,0-0.51,0-0.74-0.02c-1.4-0.07-2.36-0.32-2.86-0.76c-0.08-1.05-0.13-2.01-0.16-2.9c-0.02-0.89-0.02-1.7,0.02-2.42
				c0.05-1.14,0.15-2.14,0.28-2.98c0.13-0.84,0.21-1.6,0.24-2.28c0.04-0.83,0.03-1.48-0.02-1.96l0.43-4.09
				c0.15-0.98,0.31-1.82,0.49-2.52c0.18-0.7,0.38-1.22,0.6-1.57c0.17-0.2,0.96-0.42,2.38-0.67l2.52-0.43
				c0.16-0.02,0.48-0.04,0.98-0.07c0.5-0.03,1.01-0.06,1.55-0.08c0.54-0.03,1.01-0.04,1.43-0.05c0.42-0.01,0.61-0.01,0.59-0.01
				l0.16,0.01c0.29,0.01,0.57,0.22,0.85,0.63c0.28,0.4,0.41,0.87,0.38,1.39c-0.01,0.26-0.03,0.49-0.05,0.7
				c-0.02,0.21-0.12,0.38-0.28,0.52c-0.16,0.14-0.43,0.23-0.8,0.29c-0.37,0.06-0.9,0.09-1.61,0.08c-1.15,0-1.93,0.08-2.36,0.24
				l-0.2-0.01c-0.68-0.03-1.53,0.08-2.56,0.35c-0.11,0.13-0.2,0.35-0.27,0.67s-0.12,0.66-0.17,1.01c-0.04,0.35-0.08,0.65-0.1,0.9
				c-0.02,0.25-0.04,0.33-0.03,0.25c-0.03,0.13-0.06,0.26-0.08,0.39c-0.02,0.13-0.03,0.3-0.04,0.51c-0.01,0.18-0.01,0.38-0.01,0.61
				c0,0.22,0.01,0.46,0.02,0.72c0.81-0.04,1.47-0.09,1.98-0.16c0.51-0.07,0.91-0.09,1.2-0.08c0.55,0.03,1.08,0.04,1.6,0.04
				c0.52,0,0.98,0.05,1.38,0.16c0.4,0.11,0.71,0.31,0.93,0.59c0.22,0.28,0.32,0.73,0.29,1.32c-0.03,0.68-0.27,1.11-0.71,1.3
				c-0.44,0.19-1.19,0.27-2.26,0.25c-1.25-0.01-2.01,0.01-2.27,0.05c-0.16-0.01-0.32-0.02-0.49-0.04c-0.17-0.02-0.36-0.04-0.56-0.05
				c-0.13-0.01-0.28-0.02-0.45-0.04c-0.17-0.02-0.33-0.03-0.49-0.02s-0.3,0.05-0.42,0.14c-0.12,0.09-0.19,0.25-0.2,0.48
				c-0.01,0.16-0.01,0.36-0.01,0.61c0,0.25,0,0.48-0.01,0.68c-0.01,0.31-0.04,0.63-0.06,0.94c-0.03,0.31-0.06,0.64-0.08,0.99
				c-0.03,0.35-0.06,0.75-0.1,1.19c-0.03,0.44-0.06,0.96-0.09,1.56c0.15,0.03,0.46,0.07,0.91,0.12c0.45,0.05,0.93,0.1,1.44,0.15
				c0.5,0.05,0.99,0.11,1.46,0.17c0.47,0.06,0.78,0.11,0.93,0.14c0.03,0,0.21,0,0.55-0.01c0.34-0.01,0.84-0.03,1.49-0.05
				c0.89-0.04,1.59-0.04,2.11-0.02L162.49,71.68z"/>
		</g>
		<g>
			<path class="st2" d="M184.35,63.44c-0.07,0.96-0.22,1.79-0.45,2.5c-0.23,0.71-0.56,1.4-0.98,2.09c-0.42,0.68-0.95,1.42-1.59,2.21
				c-0.64,0.79-1.41,1.73-2.32,2.8c-0.13,0.05-0.4,0.2-0.8,0.47c-0.4,0.27-0.85,0.55-1.35,0.84c-0.5,0.29-0.99,0.56-1.48,0.81
				c-0.49,0.25-0.87,0.38-1.13,0.4c-0.58,0.02-1.14,0.11-1.69,0.25c-0.56,0.14-1.1,0.33-1.63,0.57c-1.54-0.07-2.37-0.66-2.5-1.76
				c0.01-0.13,0.02-0.29,0.04-0.47c0.02-0.18,0.04-0.38,0.05-0.58c0.06-1.3,0.01-2.83-0.16-4.58c-0.17-1.75-0.2-3.61-0.11-5.56
				c0.08-1.82,0.4-4.31,0.94-7.47c0.23-0.48,0.55-0.83,0.95-1.05c0.4-0.22,0.86-0.31,1.38-0.29c0.44,0.02,0.87,0.15,1.27,0.37
				c1.27-0.36,2.49-0.51,3.66-0.45c0.73,0.03,1.46,0.17,2.21,0.42c0.75,0.24,1.43,0.55,2.05,0.92c0.62,0.37,1.17,0.77,1.64,1.21
				c0.48,0.44,0.82,0.86,1.04,1.26C184.07,60.7,184.4,62.4,184.35,63.44z M180.76,62.37c-0.03-0.47-0.08-0.88-0.16-1.22
				c-0.08-0.34-0.22-0.66-0.44-0.96c-0.22-0.3-0.53-0.59-0.94-0.87c-0.41-0.28-0.92-0.59-1.56-0.93c-0.28-0.14-0.56-0.25-0.84-0.33
				s-0.61-0.13-0.97-0.14c-0.26-0.01-0.58,0.01-0.96,0.05c-0.38,0.05-0.75,0.09-1.12,0.12c-0.45,0.06-0.89,0.11-1.34,0.17
				c-0.36,1.05-0.61,3.1-0.76,6.14c-0.01,0.31,0,0.95,0.03,1.9c0.03,0.95,0.1,2.25,0.21,3.9c0.04,0.84,0.12,1.6,0.25,2.28
				c0.47-0.11,1.65-0.64,3.52-1.59c0.24-0.12,0.63-0.39,1.17-0.83c0.54-0.43,1.1-0.99,1.66-1.68c0.57-0.69,1.07-1.5,1.5-2.43
				c0.44-0.93,0.68-1.96,0.73-3.08L180.76,62.37z"/>
		</g>
		<g>
			<path class="st2" d="M220.91,70.21l-0.01,0.27c-0.04,0.91-0.44,1.89-1.2,2.94c-0.75,1.05-2,2.02-3.74,2.93
				c-0.67,0.36-1.28,0.64-1.84,0.83c-0.56,0.2-1.12,0.36-1.69,0.51c-0.57,0.14-1.17,0.28-1.8,0.4c-0.63,0.13-1.34,0.3-2.14,0.53
				l-1.99-0.09c-0.62-0.08-1.08-0.21-1.39-0.4c-0.3-0.18-0.51-0.42-0.63-0.69c-0.12-0.28-0.17-0.61-0.15-1s0.04-0.85,0.06-1.37
				c0.01-0.16,0.01-0.31,0.02-0.47c0.01-0.16,0.03-0.32,0.06-0.5c-0.02-0.13-0.03-0.28-0.02-0.43c0.01-0.16,0.02-0.34,0.03-0.55
				c0.08-1.77,0.21-3.15,0.37-4.13c0.16-0.98,0.26-1.75,0.28-2.29c0.01-0.31,0.02-0.65,0.03-1.02c0-0.36,0.02-0.77,0.04-1.21
				c0.08-0.7,0.19-1.49,0.31-2.37s0.23-1.87,0.33-2.96c-0.02-0.21-0.07-0.49-0.15-0.85c-0.09-0.36-0.18-0.71-0.28-1.07
				s-0.23-0.81-0.39-1.37c0.02-0.42,0.31-0.81,0.86-1.17c0.55-0.37,1.31-0.55,2.27-0.56c1.36-0.54,2.61-0.78,3.75-0.72
				c0.1,0,0.26,0.01,0.47,0c0.21,0,0.47,0.03,0.78,0.1s0.68,0.19,1.1,0.38c0.42,0.19,0.88,0.48,1.39,0.87l1.54,1.36l0.53,1.28
				c0.21,0.56,0.3,1.11,0.27,1.66c-0.06,1.25-0.58,2.41-1.57,3.49c1.73,0.84,2.78,1.5,3.15,1.99c0.19,0.3,0.39,0.68,0.57,1.16
				c0.19,0.48,0.33,1.07,0.42,1.78L220.91,70.21z M217.12,70.93c0.12-0.31,0.19-0.67,0.21-1.09c0.04-0.78-0.06-1.47-0.29-2.07
				s-0.55-1.09-0.97-1.47c-0.41-0.38-0.9-0.68-1.46-0.89c-0.56-0.21-1.16-0.33-1.78-0.36c-0.26-0.01-0.59,0.02-1,0.11
				s-0.83,0.18-1.26,0.29c-0.44,0.11-0.83,0.21-1.19,0.32c-0.36,0.1-0.6,0.16-0.73,0.18l-0.04,0.9c-0.03,0.7-0.07,1.32-0.13,1.85
				c-0.05,0.53-0.1,1.09-0.16,1.67s-0.11,1.24-0.17,1.97c-0.06,0.73-0.13,1.62-0.21,2.69l0.2,0.01c0.6,0.03,1.36-0.09,2.29-0.36
				l2.98-0.92c0.32-0.09,0.68-0.25,1.08-0.48c0.4-0.23,0.78-0.48,1.13-0.77c0.35-0.28,0.67-0.56,0.96-0.83
				C216.84,71.41,217.03,71.16,217.12,70.93z M214.28,58.24c-0.02-0.08-0.09-0.21-0.2-0.38c-0.11-0.17-0.26-0.35-0.46-0.53
				c-0.2-0.18-0.44-0.33-0.72-0.46c-0.28-0.13-0.6-0.2-0.97-0.22c-1.12-0.05-1.95,0.13-2.49,0.55c-0.06,0.18-0.1,0.39-0.11,0.62
				c-0.01,0.23-0.02,0.51-0.04,0.82c-0.01,0.31-0.05,0.68-0.11,1.11c-0.06,0.43-0.17,0.92-0.32,1.49c-0.19,0.62-0.28,1-0.29,1.16
				c1.65-0.21,3.02-0.63,4.09-1.25c1.07-0.63,1.63-1.34,1.67-2.15c0.01-0.13,0.01-0.25,0-0.37C214.31,58.5,214.3,58.37,214.28,58.24
				z"/>
		</g>
		<g>
			<path class="st2" d="M241.53,59.29c-0.23,0.51-0.43,0.9-0.6,1.16c-0.17,0.27-0.36,0.52-0.58,0.76s-0.51,0.52-0.88,0.86
				c-0.37,0.33-0.88,0.81-1.53,1.43c-0.55,0.52-0.99,0.95-1.33,1.29c-0.34,0.34-0.67,0.64-0.98,0.91c-0.31,0.27-0.65,0.56-1,0.87
				c-0.35,0.31-0.8,0.7-1.35,1.17c-0.02,0.36-0.05,0.81-0.1,1.33c-0.05,0.52-0.09,1.12-0.12,1.79c-0.01,0.23-0.01,0.51,0,0.84
				c0.01,0.33,0.03,0.65,0.05,0.96c0.02,0.31,0.04,0.61,0.06,0.88c0.01,0.27,0.02,0.49,0.01,0.65l-0.05,1.09
				c-0.04,0.96-0.03,1.75,0.04,2.35c-0.24,0.77-0.87,1.13-1.89,1.08c-0.44-0.02-0.78-0.17-1.01-0.44c-0.24-0.27-0.41-0.63-0.52-1.06
				c-0.11-0.44-0.17-0.93-0.18-1.49c-0.01-0.56,0-1.15,0.03-1.78c0.01-0.21,0.02-0.39,0.04-0.55s0.05-0.3,0.08-0.43
				c0-1.12,0-2.06,0-2.82c0-0.76,0-1.33,0.02-1.72l0.02-0.43c-0.37-0.43-0.84-1-1.41-1.71c-0.57-0.71-1.23-1.53-2-2.48
				c-0.12-0.27-0.31-0.6-0.58-1c-0.27-0.4-0.54-0.8-0.82-1.19c-0.28-0.39-0.53-0.75-0.73-1.09c-0.21-0.33-0.3-0.58-0.3-0.74
				c0.02-0.44,0.23-0.86,0.63-1.26c0.4-0.4,0.86-0.59,1.38-0.56c0.23,0.01,0.42,0.05,0.56,0.12c0.14,0.07,0.28,0.18,0.42,0.33
				c0.13,0.15,0.28,0.35,0.44,0.61c0.16,0.26,0.37,0.57,0.64,0.95c0.27,0.38,0.5,0.71,0.68,1.01c0.18,0.3,0.33,0.55,0.45,0.76
				c0.07,0.08,0.23,0.26,0.46,0.53c0.24,0.27,0.49,0.56,0.76,0.88c0.27,0.31,0.53,0.6,0.76,0.88c0.24,0.27,0.4,0.45,0.5,0.53
				c0.3-0.25,0.68-0.54,1.14-0.89c0.46-0.34,1-0.75,1.62-1.21c0.11-0.2,0.39-0.59,0.84-1.17c0.45-0.58,0.95-1.19,1.51-1.83
				c0.56-0.64,1.12-1.22,1.67-1.76c0.55-0.53,0.98-0.87,1.3-1.01c0.18,0.09,0.38,0.22,0.61,0.4c0.23,0.18,0.44,0.39,0.64,0.62
				c0.2,0.23,0.36,0.47,0.47,0.71c0.12,0.24,0.17,0.46,0.16,0.67L241.53,59.29z"/>
		</g>
		<g>
			<path class="st2" d="M272.74,71.71c-0.06,0.78-0.12,1.4-0.17,1.85c-0.05,0.45-0.1,0.83-0.15,1.13c-0.05,0.3-0.13,0.56-0.23,0.79
				c-0.1,0.23-0.24,0.51-0.41,0.84c-0.61,1.22-1.5,2.15-2.67,2.77c-1.18,0.62-2.65,0.89-4.42,0.81c-0.62-0.03-1.12-0.05-1.48-0.07
				c-0.36-0.02-0.76-0.1-1.18-0.25c-0.42-0.15-0.95-0.4-1.59-0.76c-0.63-0.35-1.54-0.87-2.7-1.56c-0.91-0.54-1.35-1.18-1.32-1.94
				c0.02-0.47,0.2-0.88,0.53-1.25c0.33-0.36,0.74-0.56,1.24-0.59c1.85,0.69,3.1,1.37,3.78,2.05c0.92,0.46,2.04,0.72,3.37,0.78
				c1.12,0.05,2.03-0.23,2.74-0.85c0.12-0.28,0.25-0.68,0.39-1.19c0.14-0.51,0.23-1.14,0.26-1.87c0.03-0.57-0.12-1.05-0.44-1.45
				c-0.32-0.39-0.73-0.74-1.24-1.06c-0.51-0.31-1.07-0.6-1.7-0.86c-0.63-0.26-1.22-0.54-1.78-0.83c-0.43-0.2-0.87-0.43-1.3-0.69
				c-0.43-0.26-0.86-0.58-1.29-0.96c-1.03-1.95-1.53-3.32-1.49-4.1c0.09-1.95,1.34-3.76,3.74-5.42c2.2-0.7,3.69-1.04,4.47-1
				c0.29,0.01,0.66,0.14,1.12,0.37c0.46,0.23,0.91,0.51,1.35,0.85c0.44,0.33,0.82,0.7,1.12,1.09c0.31,0.39,0.45,0.77,0.44,1.14
				c-0.02,0.44-0.21,0.82-0.58,1.13c-0.37,0.31-0.82,0.45-1.37,0.42c-0.05,0-0.19-0.09-0.42-0.25c-0.23-0.17-0.5-0.35-0.82-0.55
				c-0.32-0.2-0.63-0.38-0.95-0.55c-0.32-0.17-0.58-0.26-0.79-0.27c-0.44-0.02-0.87,0.06-1.28,0.25c-0.41,0.19-0.78,0.43-1.11,0.73
				c-0.33,0.3-0.59,0.63-0.79,1c-0.2,0.37-0.31,0.71-0.32,1.02c-0.03,0.6,0.13,1.14,0.47,1.63c0.34,0.49,0.77,0.88,1.27,1.19
				l2.42,0.97c0.61,0.26,1.21,0.59,1.79,0.98s1.11,0.83,1.58,1.31c0.47,0.48,0.88,0.99,1.22,1.54
				C272.38,70.6,272.61,71.15,272.74,71.71z"/>
		</g>
		<g>
			<path class="st2" d="M294.66,72.98c-0.4,1.34-1.44,2.85-3.11,4.55c-0.21,0.07-0.49,0.21-0.82,0.43
				c-0.34,0.22-0.76,0.44-1.28,0.66c-0.52,0.22-1.15,0.41-1.88,0.56s-1.6,0.2-2.59,0.15c-1.98-0.09-3.6-0.7-4.88-1.81
				c-1.28-1.12-2.23-2.82-2.85-5.12c-0.02-0.18-0.02-0.37-0.01-0.55c0.01-0.18,0.02-0.38,0.03-0.58c0.08-1.61,0.31-3.03,0.71-4.25
				c0.4-1.22,0.9-2.27,1.52-3.15c0.61-0.88,1.31-1.62,2.08-2.21s1.57-1.06,2.39-1.41c1.34-0.3,2.65-0.42,3.93-0.36
				c0.91,0.04,1.8,0.32,2.66,0.83c0.86,0.51,1.62,1.21,2.27,2.1s1.16,1.96,1.53,3.22c0.37,1.26,0.55,2.67,0.53,4.23L294.66,72.98z
				 M291.08,72.69c0.23-1.06,0.36-1.89,0.39-2.48c0.05-0.99-0.05-1.91-0.3-2.75c-0.25-0.85-0.55-1.58-0.91-2.21
				c-0.36-0.63-0.75-1.13-1.16-1.5c-0.41-0.37-0.76-0.56-1.05-0.58c-1.38-0.06-2.52,0.19-3.42,0.76c-0.9,0.57-1.62,1.27-2.15,2.11
				s-0.92,1.72-1.14,2.65c-0.23,0.93-0.35,1.72-0.38,2.37c-0.03,0.6,0.04,1.18,0.21,1.75c0.17,0.57,0.43,1.08,0.79,1.52
				c0.36,0.45,0.79,0.81,1.3,1.1c0.51,0.28,1.1,0.44,1.78,0.47c1.59,0.07,2.85-0.16,3.79-0.7C289.75,74.64,290.5,73.81,291.08,72.69
				z"/>
		</g>
		<g>
			<path class="st2" d="M310.26,76.56c0.75,0.19,1.1,0.8,1.05,1.81c-0.03,0.55-0.18,0.97-0.45,1.27c-0.28,0.3-0.62,0.44-1.04,0.42
				c-0.13-0.01-0.38-0.04-0.74-0.09c-0.36-0.06-0.75-0.11-1.17-0.17c-0.41-0.06-0.82-0.12-1.2-0.17c-0.39-0.06-0.66-0.09-0.82-0.1
				s-0.3-0.01-0.43-0.02c-0.13-0.01-0.26,0-0.39,0.02c-0.44-0.05-0.95-0.13-1.54-0.25c-0.58-0.12-1.15-0.25-1.7-0.39
				c-0.55-0.14-1.04-0.29-1.46-0.44c-0.42-0.15-0.67-0.28-0.74-0.39c-0.22-0.79-0.3-1.84-0.24-3.14c0.01-0.21,0.02-0.42,0.03-0.64
				c0.01-0.22,0.03-0.45,0.07-0.68l0.36-2.76c0.04-0.21,0.06-0.41,0.07-0.6c0.01-0.19,0.02-0.37,0.03-0.53
				c0.01-0.21,0.02-0.38,0.02-0.53c0.01-0.14-0.01-0.28-0.06-0.41c0.23-0.98,0.4-1.8,0.51-2.46c0.11-0.66,0.17-1.17,0.19-1.54
				l0.01-0.31c0.02-0.36,0.23-1.51,0.63-3.45c0.43-0.81,1.05-1.2,1.85-1.17c0.49,0.02,0.9,0.23,1.22,0.63
				c0.32,0.39,0.46,0.92,0.43,1.57c-0.12,0.36-0.24,0.81-0.36,1.35c-0.12,0.54-0.23,1.19-0.34,1.94l-0.01,0.31
				c-0.01,0.23-0.05,0.59-0.11,1.07c-0.06,0.48-0.13,0.97-0.21,1.48c-0.08,0.5-0.14,0.96-0.2,1.36c-0.06,0.4-0.09,0.63-0.09,0.68
				c-0.01,0.29-0.01,0.47,0.01,0.55c-0.16,1.09-0.28,2-0.36,2.72c-0.09,0.73-0.14,1.29-0.16,1.68c-0.01,0.26-0.01,0.43,0.01,0.51
				c1.35,0.22,2.24,0.34,2.68,0.36c0.21,0.01,0.42,0.01,0.64,0.01c0.22,0,0.45,0,0.68,0.01C307.94,76.1,309.04,76.27,310.26,76.56z"
				/>
		</g>
		<g>
			<path class="st2" d="M331.44,82.72c-0.13,0.49-0.62,0.71-1.48,0.67c-0.7-0.03-1.2-0.21-1.5-0.54c-0.11-0.45-0.27-1-0.47-1.65
				c-0.21-0.65-0.44-1.4-0.72-2.24c-0.11-1.02-0.22-1.74-0.35-2.17c-0.12-0.42-0.28-0.74-0.48-0.96c-0.39,0.01-0.95,0.03-1.69,0.06
				c-0.73,0.03-1.5,0.07-2.31,0.13c-0.81,0.05-1.57,0.13-2.28,0.24c-0.71,0.11-1.22,0.24-1.54,0.38c-0.16,0.64-0.35,1.35-0.57,2.12
				c-0.22,0.77-0.48,1.59-0.78,2.47c-0.09,0.26-0.28,0.44-0.57,0.54c-0.29,0.1-0.65,0.15-1.06,0.13c-0.42-0.02-0.77-0.11-1.06-0.27
				c-0.29-0.16-0.43-0.38-0.42-0.66c0.02-0.52,0.41-2.05,1.16-4.6c-0.02-0.1-0.03-0.26-0.02-0.47c0.02-0.34,0.08-0.76,0.2-1.26
				c0.11-0.5,0.24-0.99,0.36-1.45c0.13-0.46,0.24-0.86,0.35-1.2c0.11-0.33,0.16-0.51,0.16-0.54l1.41-3.41
				c0.07-0.34,0.23-0.78,0.47-1.35c0.25-0.56,0.52-1.14,0.81-1.72c0.29-0.59,0.56-1.14,0.82-1.66c0.26-0.52,0.43-0.92,0.53-1.21
				c0.27-0.85,0.92-1.25,1.93-1.2c0.83,0.04,1.35,0.38,1.56,1.01c0.29,0.59,0.55,1.11,0.79,1.56c0.24,0.46,0.5,0.96,0.77,1.5
				c0.27,0.55,0.53,1.07,0.77,1.56c0.24,0.49,0.44,0.93,0.6,1.32c0.16,0.39,0.26,0.64,0.28,0.78c0.18,0.5,0.42,1.08,0.7,1.73
				c0.28,0.65,0.63,1.38,1.03,2.18c0.24,0.35,0.46,0.81,0.66,1.38c0.19,0.57,0.37,1.15,0.53,1.73c0.15,0.58,0.29,1.11,0.39,1.58
				c0.11,0.47,0.21,0.79,0.31,0.95c-0.01,0.18,0.04,0.46,0.14,0.85c0.1,0.38,0.2,0.79,0.29,1.21c0.1,0.42,0.19,0.82,0.28,1.19
				c0.09,0.37,0.13,0.63,0.12,0.79C331.53,82.35,331.5,82.52,331.44,82.72z M325.07,72.57c-0.18-0.63-0.34-1.18-0.49-1.63
				c-0.15-0.45-0.32-0.9-0.52-1.35c-0.2-0.45-0.43-0.97-0.69-1.54c-0.26-0.57-0.59-1.31-0.99-2.22c-0.65,1.06-1.14,2.31-1.47,3.73
				c-0.6,1.04-1.04,2.15-1.33,3.34c0.82-0.2,1.47-0.28,1.97-0.26c0.18,0.01,0.31,0.03,0.39,0.06c0.45-0.08,0.98-0.11,1.61-0.08
				C324.17,72.64,324.68,72.63,325.07,72.57z"/>
		</g>
		<g>
			<path class="st2" d="M352.63,74.61l-0.05,1.01c-0.05,1.02-0.13,2-0.26,2.96l-0.03,0.55c-0.01,0.29-0.05,0.6-0.12,0.95
				c-0.07,0.35-0.17,0.68-0.3,1c-0.13,0.32-0.31,0.59-0.55,0.8c-0.23,0.21-0.5,0.31-0.82,0.29c-0.73-0.03-1.33-0.31-1.8-0.83
				c0.02-0.44-0.85-1.84-2.62-4.19c-0.12-0.32-0.32-0.74-0.63-1.26c-0.3-0.52-0.68-1.15-1.14-1.87c-0.13-0.11-0.32-0.37-0.57-0.77
				s-0.51-0.83-0.76-1.27c-0.25-0.44-0.47-0.84-0.65-1.18s-0.26-0.51-0.23-0.48c-0.2-0.22-0.43-0.52-0.7-0.91
				c-0.27-0.39-0.6-0.88-0.99-1.47c-0.07,1.38-0.17,2.17-0.31,2.37c-0.04,0.29-0.09,0.65-0.15,1.11c-0.06,0.45-0.12,0.92-0.18,1.4
				c-0.06,0.48-0.12,0.95-0.16,1.4c-0.05,0.45-0.09,0.81-0.13,1.07l-0.01,0.16c-0.01,0.21-0.07,0.52-0.18,0.95
				c-0.11,0.43-0.24,0.86-0.37,1.29c-0.14,0.44-0.27,0.83-0.39,1.19s-0.18,0.57-0.19,0.62c-0.43,0.84-1.06,1.24-1.89,1.2
				c-0.83-0.04-1.33-0.6-1.49-1.67c0.23-1.03,0.58-2.74,1.06-5.11c0.05-0.47,0.12-1.08,0.22-1.83c0.1-0.75,0.24-1.67,0.42-2.76
				c0.06-0.26,0.14-0.68,0.22-1.28c0.08-0.6,0.17-1.22,0.27-1.88c0.1-0.66,0.2-1.29,0.3-1.88c0.11-0.59,0.2-1.02,0.29-1.28
				c0.61-0.7,1.42-1.03,2.43-0.98c0.13,0.06,0.29,0.21,0.51,0.45c0.21,0.24,0.44,0.54,0.68,0.87c0.24,0.34,0.5,0.7,0.77,1.09
				c0.27,0.39,0.51,0.79,0.73,1.19c0.27,0.35,0.63,0.84,1.08,1.48c0.45,0.63,0.96,1.36,1.54,2.19c0.58,0.82,1.17,1.72,1.79,2.69
				c0.62,0.97,1.22,1.97,1.79,3.02l0.05-1.05c0.04-0.96,0.04-1.67-0.02-2.11c0.06-0.15,0.09-0.32,0.1-0.5
				c0-0.05-0.01-0.22-0.04-0.49s-0.05-0.59-0.07-0.94c-0.02-0.35-0.04-0.7-0.07-1.04c-0.02-0.34-0.03-0.6-0.02-0.78
				c0-0.05,0.01-0.1,0.03-0.14c0.01-0.04,0.02-0.08,0.03-0.14c-0.02-1.15-0.06-2.11-0.1-2.88c-0.04-0.77-0.11-1.37-0.19-1.79
				c0.35-1.29,0.95-1.91,1.81-1.87s1.46,0.5,1.81,1.38c0.01,0.91,0.04,1.96,0.09,3.13c0.05,1.18,0.13,2.48,0.25,3.92L352.63,74.61z"
				/>
		</g>
		<g>
			<path class="st2" d="M374.09,84.73c-0.13,0.49-0.62,0.71-1.48,0.67c-0.7-0.03-1.2-0.21-1.5-0.54c-0.11-0.45-0.27-1-0.47-1.65
				c-0.21-0.65-0.44-1.4-0.72-2.24c-0.11-1.02-0.23-1.74-0.35-2.17c-0.12-0.42-0.28-0.74-0.48-0.96c-0.39,0.01-0.95,0.03-1.69,0.06
				c-0.73,0.03-1.5,0.07-2.31,0.13c-0.81,0.05-1.57,0.13-2.28,0.24c-0.71,0.11-1.22,0.24-1.54,0.38c-0.16,0.64-0.35,1.35-0.57,2.12
				c-0.22,0.77-0.48,1.59-0.78,2.47c-0.09,0.26-0.28,0.44-0.57,0.54c-0.29,0.1-0.65,0.15-1.06,0.13c-0.42-0.02-0.77-0.11-1.06-0.27
				c-0.29-0.16-0.43-0.38-0.42-0.66c0.02-0.52,0.41-2.05,1.16-4.6c-0.02-0.1-0.03-0.26-0.02-0.47c0.02-0.34,0.08-0.76,0.2-1.26
				c0.11-0.5,0.23-0.99,0.36-1.45c0.13-0.46,0.24-0.86,0.35-1.2c0.11-0.33,0.16-0.51,0.16-0.54l1.41-3.41
				c0.07-0.34,0.23-0.78,0.47-1.35c0.25-0.56,0.52-1.14,0.8-1.72c0.29-0.59,0.56-1.14,0.82-1.66c0.26-0.52,0.44-0.92,0.53-1.21
				c0.27-0.85,0.92-1.25,1.93-1.2c0.83,0.04,1.35,0.38,1.56,1.01c0.28,0.59,0.55,1.11,0.79,1.56c0.24,0.46,0.5,0.96,0.77,1.5
				c0.27,0.55,0.53,1.07,0.77,1.56c0.24,0.49,0.44,0.93,0.6,1.32c0.16,0.39,0.26,0.64,0.28,0.78c0.18,0.5,0.42,1.08,0.7,1.73
				c0.28,0.65,0.63,1.38,1.03,2.18c0.24,0.35,0.46,0.81,0.66,1.38c0.19,0.57,0.37,1.15,0.53,1.73c0.15,0.58,0.29,1.11,0.39,1.58
				c0.11,0.47,0.21,0.79,0.31,0.95c-0.01,0.18,0.04,0.46,0.14,0.85c0.1,0.38,0.2,0.79,0.29,1.21c0.1,0.42,0.19,0.82,0.28,1.19
				c0.09,0.37,0.13,0.63,0.12,0.79C374.19,84.36,374.16,84.53,374.09,84.73z M367.73,74.58c-0.18-0.63-0.34-1.18-0.49-1.63
				c-0.15-0.45-0.32-0.9-0.52-1.35c-0.2-0.45-0.43-0.97-0.69-1.54c-0.26-0.57-0.59-1.31-0.99-2.22c-0.65,1.06-1.14,2.31-1.47,3.72
				c-0.6,1.04-1.04,2.15-1.33,3.34c0.82-0.2,1.47-0.28,1.97-0.26c0.18,0.01,0.31,0.03,0.39,0.06c0.45-0.08,0.98-0.11,1.61-0.08
				C366.82,74.65,367.33,74.64,367.73,74.58z"/>
		</g>
	</g>
</g>
</svg>
